<svg width="4340" height="3476" viewBox="0 0 4340 3476" fill="none" xmlns="http://www.w3.org/2000/svg">
<g clip-path="url(#clip0)">
<rect width="4340" height="3476" fill="#FBC69E"/>
<path d="M692.348 -47.8932C768.431 183.782 799.922 282.774 540.681 489.921C250.022 722.173 -267.717 483.056 -331.075 284.565C-394.434 86.075 -195.183 78.5203 -54.8802 -108.508C90.0444 -301.698 627.272 -246.051 692.348 -47.8932Z" fill="#E6EFF7"/>
<path d="M4999.48 -445.317C5172.31 76.5637 5243.22 299.676 4450.37 804.318C3561.44 1370.12 2111.61 882.49 1968.82 435.149C1826.03 -12.1908 2404.37 -52.6407 2848.79 -497.379C3307.86 -956.769 4851.64 -891.695 4999.48 -445.317Z" fill="#E6EFF7"/>
<path d="M4372.38 871.653C4543.85 1393.78 4614.82 1616.88 4030.57 2083.73C3375.5 2607.16 2208.67 2068.26 2065.88 1620.92C1923.09 1173.58 2372.14 1156.55 2688.34 735.045C3014.96 299.651 4225.72 425.063 4372.38 871.653Z" fill="#FBC69E"/>
<path d="M2242.46 262.863C2139.65 604.819 2094.35 750.422 1562.4 891.775C965.972 1050.26 481.54 476.685 572.079 184.627C662.618 -107.431 937.21 -17.2437 1291.43 -191.967C1657.33 -372.447 2330.39 -29.6216 2242.46 262.863Z" fill="#CDE9CB"/>
<path d="M3586.51 720.088C3590.64 1262.96 3589.53 1494.52 2669.23 1846.96C1637.39 2242.11 393.071 1503.36 394.687 1038.98C396.303 574.606 965.731 638.862 1531.93 282.559C2116.78 -85.4823 3582.97 255.751 3586.51 720.088Z" fill="#FBC69E"/>
<path d="M1596.01 1915.73C1600.15 2458.6 1599.04 2690.15 678.735 3042.6C-353.102 3437.75 -1597.43 2698.99 -1595.81 2234.62C-1594.19 1770.24 -1024.77 1834.5 -458.566 1478.2C126.288 1110.16 1592.47 1451.39 1596.01 1915.73Z" fill="#166160"/>
<path d="M1526.68 751.628C1684.76 1231.81 1750.02 1437.02 1157.03 1876.5C492.175 2369.25 -656.502 1887.23 -787.841 1475.77C-919.179 1064.31 -471.682 1042.4 -146.666 648.51C189.057 241.64 1391.47 340.912 1526.68 751.628Z" fill="#FBC69E"/>
<path d="M2312.51 2542.05C1429.58 2516.14 1053.03 2503.98 496.945 2130.6C-126.535 1711.97 1097.96 1268.72 1853.13 1292.88C2608.29 1317.03 2493.23 1533.75 3062.17 1770.53C3649.85 2015.12 3067.71 2564.22 2312.51 2542.05Z" fill="#CDE9CB"/>
<path d="M141.6 145.4C141.6 137 143.28 129.52 146.64 122.96C150.08 116.4 154.96 111.32 161.28 107.72C167.6 104.04 175.04 102.2 183.6 102.2C190.96 102.2 197.52 103.6 203.28 106.4C209.12 109.12 213.84 113 217.44 118.04C221.12 123.08 223.56 128.96 224.76 135.68H196.68C195.4 132.88 193.56 130.72 191.16 129.2C188.84 127.6 186.16 126.8 183.12 126.8C178.64 126.8 175.08 128.48 172.44 131.84C169.88 135.2 168.6 139.72 168.6 145.4C168.6 151.08 169.88 155.6 172.44 158.96C175.08 162.32 178.64 164 183.12 164C186.16 164 188.84 163.24 191.16 161.72C193.56 160.12 195.4 157.92 196.68 155.12H224.76C223.56 161.84 221.12 167.72 217.44 172.76C213.84 177.8 209.12 181.72 203.28 184.52C197.52 187.24 190.96 188.6 183.6 188.6C175.04 188.6 167.6 186.8 161.28 183.2C154.96 179.52 150.08 174.4 146.64 167.84C143.28 161.28 141.6 153.8 141.6 145.4ZM312.952 103.04V188H286.312V154.88H260.992V188H234.352V103.04H260.992V133.64H286.312V103.04H312.952ZM351.578 124.28V134.72H377.978V154.76H351.578V166.76H381.578V188H324.938V103.04H381.578V124.28H351.578ZM389.217 145.4C389.217 137 390.897 129.52 394.257 122.96C397.697 116.4 402.577 111.32 408.897 107.72C415.217 104.04 422.657 102.2 431.217 102.2C438.577 102.2 445.137 103.6 450.897 106.4C456.737 109.12 461.457 113 465.057 118.04C468.737 123.08 471.177 128.96 472.377 135.68H444.297C443.017 132.88 441.177 130.72 438.777 129.2C436.457 127.6 433.777 126.8 430.737 126.8C426.257 126.8 422.697 128.48 420.057 131.84C417.497 135.2 416.217 139.72 416.217 145.4C416.217 151.08 417.497 155.6 420.057 158.96C422.697 162.32 426.257 164 430.737 164C433.777 164 436.457 163.24 438.777 161.72C441.177 160.12 443.017 157.92 444.297 155.12H472.377C471.177 161.84 468.737 167.72 465.057 172.76C461.457 177.8 456.737 181.72 450.897 184.52C445.137 187.24 438.577 188.6 431.217 188.6C422.657 188.6 415.217 186.8 408.897 183.2C402.577 179.52 397.697 174.4 394.257 167.84C390.897 161.28 389.217 153.8 389.217 145.4ZM533.329 188L508.609 151.16V188H481.969V103.04H508.609V138.8L532.969 103.04H563.089L533.809 143.72L565.009 188H533.329ZM674.545 103.04L644.065 162.2V188H617.425V162.2L586.945 103.04H617.425L630.985 133.16L644.545 103.04H674.545ZM722.002 188.84C714.002 188.84 706.642 186.96 699.922 183.2C693.282 179.44 688.002 174.24 684.082 167.6C680.162 160.96 678.202 153.48 678.202 145.16C678.202 136.84 680.162 129.36 684.082 122.72C688.002 116.08 693.282 110.92 699.922 107.24C706.642 103.48 714.002 101.6 722.002 101.6C730.002 101.6 737.322 103.48 743.962 107.24C750.602 110.92 755.842 116.08 759.682 122.72C763.602 129.36 765.562 136.84 765.562 145.16C765.562 153.48 763.602 160.96 759.682 167.6C755.842 174.24 750.562 179.44 743.842 183.2C737.202 186.96 729.922 188.84 722.002 188.84ZM722.002 164C727.282 164 731.362 162.32 734.242 158.96C737.122 155.52 738.562 150.92 738.562 145.16C738.562 139.32 737.122 134.72 734.242 131.36C731.362 127.92 727.282 126.2 722.002 126.2C716.642 126.2 712.522 127.92 709.642 131.36C706.762 134.72 705.322 139.32 705.322 145.16C705.322 150.92 706.762 155.52 709.642 158.96C712.522 162.32 716.642 164 722.002 164ZM801.212 103.04V150.92C801.212 154.84 802.052 157.96 803.732 160.28C805.492 162.52 808.292 163.64 812.132 163.64C815.972 163.64 818.812 162.52 820.652 160.28C822.492 157.96 823.412 154.84 823.412 150.92V103.04H849.932V150.92C849.932 159 848.252 165.92 844.892 171.68C841.532 177.36 836.932 181.64 831.092 184.52C825.252 187.4 818.732 188.84 811.532 188.84C804.332 188.84 797.932 187.4 792.332 184.52C786.812 181.64 782.492 177.36 779.372 171.68C776.252 166 774.692 159.08 774.692 150.92V103.04H801.212ZM904.142 188L888.182 157.52H888.062V188H861.422V103.04H901.022C907.902 103.04 913.782 104.28 918.662 106.76C923.542 109.16 927.182 112.48 929.582 116.72C932.062 120.88 933.302 125.6 933.302 130.88C933.302 136.56 931.702 141.6 928.502 146C925.382 150.4 920.862 153.56 914.942 155.48L933.422 188H904.142ZM888.062 139.76H898.622C901.182 139.76 903.102 139.2 904.382 138.08C905.662 136.88 906.302 135.04 906.302 132.56C906.302 130.32 905.622 128.56 904.262 127.28C902.982 126 901.102 125.36 898.622 125.36H888.062V139.76ZM141.6 261.4C141.6 253 143.28 245.52 146.64 238.96C150.08 232.4 154.96 227.32 161.28 223.72C167.6 220.04 175.04 218.2 183.6 218.2C190.96 218.2 197.52 219.6 203.28 222.4C209.12 225.12 213.84 229 217.44 234.04C221.12 239.08 223.56 244.96 224.76 251.68H196.68C195.4 248.88 193.56 246.72 191.16 245.2C188.84 243.6 186.16 242.8 183.12 242.8C178.64 242.8 175.08 244.48 172.44 247.84C169.88 251.2 168.6 255.72 168.6 261.4C168.6 267.08 169.88 271.6 172.44 274.96C175.08 278.32 178.64 280 183.12 280C186.16 280 188.84 279.24 191.16 277.72C193.56 276.12 195.4 273.92 196.68 271.12H224.76C223.56 277.84 221.12 283.72 217.44 288.76C213.84 293.8 209.12 297.72 203.28 300.52C197.52 303.24 190.96 304.6 183.6 304.6C175.04 304.6 167.6 302.8 161.28 299.2C154.96 295.52 150.08 290.4 146.64 283.84C143.28 277.28 141.6 269.8 141.6 261.4ZM260.992 283.84H286.672V304H234.352V219.04H260.992V283.84ZM321.695 219.04V304H295.055V219.04H321.695ZM435.847 219.04V304H409.327V261.64L396.247 304H373.447L360.367 261.64V304H333.727V219.04H366.367L385.087 270.04L403.327 219.04H435.847ZM502.347 291.16H474.027L469.827 304H441.867L472.947 219.04H503.667L534.627 304H506.547L502.347 291.16ZM495.867 271.12L488.187 247.48L480.507 271.12H495.867ZM607.4 219.04V240.16H584.84V304H558.2V240.16H535.88V219.04H607.4ZM641.265 240.28V250.72H667.665V270.76H641.265V282.76H671.265V304H614.625V219.04H671.265V240.28H641.265ZM771.175 248.2C771.175 253.56 769.935 258.44 767.455 262.84C764.975 267.16 761.295 270.6 756.415 273.16C751.615 275.72 745.775 277 738.895 277H728.335V304H701.695V219.04H738.895C749.295 219.04 757.255 221.68 762.775 226.96C768.375 232.24 771.175 239.32 771.175 248.2ZM735.895 256C741.415 256 744.175 253.4 744.175 248.2C744.175 243 741.415 240.4 735.895 240.4H728.335V256H735.895ZM822.345 304L806.385 273.52H806.265V304H779.625V219.04H819.225C826.105 219.04 831.985 220.28 836.865 222.76C841.745 225.16 845.385 228.48 847.785 232.72C850.265 236.88 851.505 241.6 851.505 246.88C851.505 252.56 849.905 257.6 846.705 262C843.585 266.4 839.065 269.56 833.145 271.48L851.625 304H822.345ZM806.265 255.76H816.825C819.385 255.76 821.305 255.2 822.585 254.08C823.865 252.88 824.505 251.04 824.505 248.56C824.505 246.32 823.825 244.56 822.465 243.28C821.185 242 819.305 241.36 816.825 241.36H806.265V255.76ZM886.656 219.04V304H860.016V219.04H886.656ZM984.248 219.04L955.688 304H921.248L892.688 219.04H921.008L938.528 277.48L955.928 219.04H984.248ZM1016.85 219.04V304H990.211V219.04H1016.85ZM1055.52 283.84H1081.2V304H1028.88V219.04H1055.52V283.84ZM1116.23 240.28V250.72H1142.63V270.76H1116.23V282.76H1146.23V304H1089.59V219.04H1146.23V240.28H1116.23ZM1208.35 248.08C1207.31 246.4 1205.83 245.12 1203.91 244.24C1201.99 243.28 1199.67 242.8 1196.95 242.8C1191.83 242.8 1187.87 244.48 1185.07 247.84C1182.27 251.12 1180.87 255.64 1180.87 261.4C1180.87 268.04 1182.43 273 1185.55 276.28C1188.67 279.56 1193.47 281.2 1199.95 281.2C1206.11 281.2 1211.07 278.72 1214.83 273.76H1193.59V254.92H1236.91V281.56C1233.23 287.88 1228.15 293.32 1221.67 297.88C1215.19 302.36 1206.99 304.6 1197.07 304.6C1188.27 304.6 1180.59 302.8 1174.03 299.2C1167.55 295.52 1162.55 290.4 1159.03 283.84C1155.59 277.28 1153.87 269.8 1153.87 261.4C1153.87 253 1155.59 245.52 1159.03 238.96C1162.55 232.4 1167.55 227.32 1174.03 223.72C1180.51 220.04 1188.11 218.2 1196.83 218.2C1207.95 218.2 1216.99 220.88 1223.95 226.24C1230.99 231.6 1235.15 238.88 1236.43 248.08H1208.35ZM1273.14 240.28V250.72H1299.54V270.76H1273.14V282.76H1303.14V304H1246.5V219.04H1303.14V240.28H1273.14Z" fill="#166160"/>
<rect x="-69" y="375" width="4409" height="3101" fill="#166160"/>
<path d="M1613.4 942.04C1622.28 942.04 1630.04 943.84 1636.68 947.44C1643.4 951.04 1648.56 956.04 1652.16 962.44C1655.76 968.84 1657.56 976.12 1657.56 984.28C1657.56 992.36 1655.76 999.64 1652.16 1006.12C1648.56 1012.6 1643.4 1017.72 1636.68 1021.48C1630.04 1025.16 1622.28 1027 1613.4 1027H1578V942.04H1613.4ZM1611 1003.24C1617 1003.24 1621.76 1001.6 1625.28 998.32C1628.8 995.04 1630.56 990.36 1630.56 984.28C1630.56 978.2 1628.8 973.52 1625.28 970.24C1621.76 966.96 1617 965.32 1611 965.32H1604.64V1003.24H1611ZM1699.34 1027.84C1692.54 1027.84 1686.42 1026.44 1680.98 1023.64C1675.54 1020.84 1671.26 1016.84 1668.14 1011.64C1665.1 1006.36 1663.58 1000.2 1663.58 993.16C1663.58 986.12 1665.1 980 1668.14 974.8C1671.26 969.52 1675.54 965.48 1680.98 962.68C1686.42 959.88 1692.54 958.48 1699.34 958.48C1706.14 958.48 1712.26 959.88 1717.7 962.68C1723.14 965.48 1727.38 969.52 1730.42 974.8C1733.54 980 1735.1 986.12 1735.1 993.16C1735.1 1000.2 1733.54 1006.36 1730.42 1011.64C1727.38 1016.84 1723.14 1020.84 1717.7 1023.64C1712.26 1026.44 1706.14 1027.84 1699.34 1027.84ZM1699.34 1004.8C1701.82 1004.8 1703.9 1003.84 1705.58 1001.92C1707.26 999.92 1708.1 997 1708.1 993.16C1708.1 989.32 1707.26 986.44 1705.58 984.52C1703.9 982.52 1701.82 981.52 1699.34 981.52C1696.86 981.52 1694.78 982.52 1693.1 984.52C1691.42 986.44 1690.58 989.32 1690.58 993.16C1690.58 997 1691.38 999.92 1692.98 1001.92C1694.66 1003.84 1696.78 1004.8 1699.34 1004.8ZM1840.3 959.32L1796.98 1059.4H1767.82L1784.86 1023.64L1756.66 959.32H1786.3L1799.02 993.64L1810.9 959.32H1840.3ZM1877.23 1027.84C1870.43 1027.84 1864.31 1026.44 1858.87 1023.64C1853.43 1020.84 1849.15 1016.84 1846.03 1011.64C1842.99 1006.36 1841.47 1000.2 1841.47 993.16C1841.47 986.12 1842.99 980 1846.03 974.8C1849.15 969.52 1853.43 965.48 1858.87 962.68C1864.31 959.88 1870.43 958.48 1877.23 958.48C1884.03 958.48 1890.15 959.88 1895.59 962.68C1901.03 965.48 1905.27 969.52 1908.31 974.8C1911.43 980 1912.99 986.12 1912.99 993.16C1912.99 1000.2 1911.43 1006.36 1908.31 1011.64C1905.27 1016.84 1901.03 1020.84 1895.59 1023.64C1890.15 1026.44 1884.03 1027.84 1877.23 1027.84ZM1877.23 1004.8C1879.71 1004.8 1881.79 1003.84 1883.47 1001.92C1885.15 999.92 1885.99 997 1885.99 993.16C1885.99 989.32 1885.15 986.44 1883.47 984.52C1881.79 982.52 1879.71 981.52 1877.23 981.52C1874.75 981.52 1872.67 982.52 1870.99 984.52C1869.31 986.44 1868.47 989.32 1868.47 993.16C1868.47 997 1869.27 999.92 1870.87 1001.92C1872.55 1003.84 1874.67 1004.8 1877.23 1004.8ZM1993 959.32V1027H1966.36V1016.68C1964.28 1019.88 1961.48 1022.48 1957.96 1024.48C1954.52 1026.48 1950.4 1027.48 1945.6 1027.48C1937.84 1027.48 1931.76 1024.88 1927.36 1019.68C1923.04 1014.48 1920.88 1007.44 1920.88 998.56V959.32H1947.4V995.2C1947.4 998.4 1948.24 1000.96 1949.92 1002.88C1951.68 1004.72 1954 1005.64 1956.88 1005.64C1959.84 1005.64 1962.16 1004.72 1963.84 1002.88C1965.52 1000.96 1966.36 998.4 1966.36 995.2V959.32H1993ZM2052.06 938.2V1027H2025.42V938.2H2052.06ZM2077.53 953.92C2072.89 953.92 2069.17 952.68 2066.37 950.2C2063.57 947.72 2062.17 944.6 2062.17 940.84C2062.17 937 2063.57 933.84 2066.37 931.36C2069.17 928.8 2072.89 927.52 2077.53 927.52C2082.09 927.52 2085.77 928.8 2088.57 931.36C2091.37 933.84 2092.77 937 2092.77 940.84C2092.77 944.6 2091.37 947.72 2088.57 950.2C2085.77 952.68 2082.09 953.92 2077.53 953.92ZM2090.73 959.32V1027H2064.09V959.32H2090.73ZM2137.09 1001.68L2147.89 959.32H2176.21L2153.65 1027H2120.41L2097.85 959.32H2126.17L2137.09 1001.68ZM2248.79 992.56C2248.79 994.4 2248.67 996.16 2248.43 997.84H2205.59C2205.99 1003.68 2208.43 1006.6 2212.91 1006.6C2215.79 1006.6 2217.87 1005.28 2219.15 1002.64H2247.35C2246.39 1007.44 2244.35 1011.76 2241.23 1015.6C2238.19 1019.36 2234.31 1022.36 2229.59 1024.6C2224.95 1026.76 2219.83 1027.84 2214.23 1027.84C2207.51 1027.84 2201.51 1026.44 2196.23 1023.64C2191.03 1020.84 2186.95 1016.84 2183.99 1011.64C2181.11 1006.36 2179.67 1000.2 2179.67 993.16C2179.67 986.12 2181.11 980 2183.99 974.8C2186.95 969.52 2191.03 965.48 2196.23 962.68C2201.51 959.88 2207.51 958.48 2214.23 958.48C2220.95 958.48 2226.91 959.88 2232.11 962.68C2237.39 965.4 2241.47 969.32 2244.35 974.44C2247.31 979.56 2248.79 985.6 2248.79 992.56ZM2221.79 986.2C2221.79 983.96 2221.07 982.28 2219.63 981.16C2218.19 979.96 2216.39 979.36 2214.23 979.36C2209.51 979.36 2206.75 981.64 2205.95 986.2H2221.79ZM2291.05 953.92C2286.41 953.92 2282.69 952.68 2279.89 950.2C2277.09 947.72 2275.69 944.6 2275.69 940.84C2275.69 937 2277.09 933.84 2279.89 931.36C2282.69 928.8 2286.41 927.52 2291.05 927.52C2295.61 927.52 2299.29 928.8 2302.09 931.36C2304.89 933.84 2306.29 937 2306.29 940.84C2306.29 944.6 2304.89 947.72 2302.09 950.2C2299.29 952.68 2295.61 953.92 2291.05 953.92ZM2304.25 959.32V1027H2277.61V959.32H2304.25ZM2363.68 958.84C2371.44 958.84 2377.48 961.44 2381.8 966.64C2386.2 971.84 2388.4 978.88 2388.4 987.76V1027H2361.88V991.12C2361.88 987.92 2361 985.4 2359.24 983.56C2357.56 981.64 2355.28 980.68 2352.4 980.68C2349.44 980.68 2347.12 981.64 2345.44 983.56C2343.76 985.4 2342.92 987.92 2342.92 991.12V1027H2316.28V959.32H2342.92V969.64C2345 966.44 2347.76 963.84 2351.2 961.84C2354.72 959.84 2358.88 958.84 2363.68 958.84ZM2416.74 993.16C2416.74 986.04 2417.94 979.88 2420.34 974.68C2422.82 969.4 2426.18 965.4 2430.42 962.68C2434.66 959.88 2439.42 958.48 2444.7 958.48C2449.1 958.48 2452.9 959.4 2456.1 961.24C2459.3 963 2461.74 965.44 2463.42 968.56V959.32H2489.94V1027H2463.42V1017.76C2461.74 1020.88 2459.3 1023.36 2456.1 1025.2C2452.9 1026.96 2449.1 1027.84 2444.7 1027.84C2439.42 1027.84 2434.66 1026.48 2430.42 1023.76C2426.18 1020.96 2422.82 1016.96 2420.34 1011.76C2417.94 1006.48 2416.74 1000.28 2416.74 993.16ZM2463.42 993.16C2463.42 989.56 2462.5 986.76 2460.66 984.76C2458.82 982.76 2456.46 981.76 2453.58 981.76C2450.7 981.76 2448.34 982.76 2446.5 984.76C2444.66 986.76 2443.74 989.56 2443.74 993.16C2443.74 996.76 2444.66 999.56 2446.5 1001.56C2448.34 1003.56 2450.7 1004.56 2453.58 1004.56C2456.46 1004.56 2458.82 1003.56 2460.66 1001.56C2462.5 999.56 2463.42 996.76 2463.42 993.16ZM2561.3 954.52C2559.86 954.36 2558.86 954.28 2558.3 954.28C2556.3 954.28 2554.78 954.68 2553.74 955.48C2552.7 956.2 2551.98 957.48 2551.58 959.32H2561.3V981.52H2551.34V1027H2524.7V981.52H2517.5V959.32H2524.7C2524.86 950.52 2527.62 943.72 2532.98 938.92C2538.42 934.04 2546.02 931.6 2555.78 931.6C2556.9 931.6 2558.74 931.68 2561.3 931.84V954.52ZM2595.11 938.2V1027H2568.47V938.2H2595.11ZM2639.3 1027.84C2632.5 1027.84 2626.38 1026.44 2620.94 1023.64C2615.5 1020.84 2611.22 1016.84 2608.1 1011.64C2605.06 1006.36 2603.54 1000.2 2603.54 993.16C2603.54 986.12 2605.06 980 2608.1 974.8C2611.22 969.52 2615.5 965.48 2620.94 962.68C2626.38 959.88 2632.5 958.48 2639.3 958.48C2646.1 958.48 2652.22 959.88 2657.66 962.68C2663.1 965.48 2667.34 969.52 2670.38 974.8C2673.5 980 2675.06 986.12 2675.06 993.16C2675.06 1000.2 2673.5 1006.36 2670.38 1011.64C2667.34 1016.84 2663.1 1020.84 2657.66 1023.64C2652.22 1026.44 2646.1 1027.84 2639.3 1027.84ZM2639.3 1004.8C2641.78 1004.8 2643.86 1003.84 2645.54 1001.92C2647.22 999.92 2648.06 997 2648.06 993.16C2648.06 989.32 2647.22 986.44 2645.54 984.52C2643.86 982.52 2641.78 981.52 2639.3 981.52C2636.82 981.52 2634.74 982.52 2633.06 984.52C2631.38 986.44 2630.54 989.32 2630.54 993.16C2630.54 997 2631.34 999.92 2632.94 1001.92C2634.62 1003.84 2636.74 1004.8 2639.3 1004.8ZM2715.59 1027.84C2708.79 1027.84 2702.67 1026.44 2697.23 1023.64C2691.79 1020.84 2687.51 1016.84 2684.39 1011.64C2681.35 1006.36 2679.83 1000.2 2679.83 993.16C2679.83 986.12 2681.35 980 2684.39 974.8C2687.51 969.52 2691.79 965.48 2697.23 962.68C2702.67 959.88 2708.79 958.48 2715.59 958.48C2722.39 958.48 2728.51 959.88 2733.95 962.68C2739.39 965.48 2743.63 969.52 2746.67 974.8C2749.79 980 2751.35 986.12 2751.35 993.16C2751.35 1000.2 2749.79 1006.36 2746.67 1011.64C2743.63 1016.84 2739.39 1020.84 2733.95 1023.64C2728.51 1026.44 2722.39 1027.84 2715.59 1027.84ZM2715.59 1004.8C2718.07 1004.8 2720.15 1003.84 2721.83 1001.92C2723.51 999.92 2724.35 997 2724.35 993.16C2724.35 989.32 2723.51 986.44 2721.83 984.52C2720.15 982.52 2718.07 981.52 2715.59 981.52C2713.11 981.52 2711.03 982.52 2709.35 984.52C2707.67 986.44 2706.83 989.32 2706.83 993.16C2706.83 997 2707.63 999.92 2709.23 1001.92C2710.91 1003.84 2713.03 1004.8 2715.59 1004.8ZM2756.12 993.16C2756.12 986.04 2757.32 979.88 2759.72 974.68C2762.2 969.4 2765.56 965.4 2769.8 962.68C2774.04 959.88 2778.8 958.48 2784.08 958.48C2788.48 958.48 2792.24 959.4 2795.36 961.24C2798.56 963 2801 965.44 2802.68 968.56V938.2H2829.32V1027H2802.68V1017.76C2801 1020.88 2798.56 1023.36 2795.36 1025.2C2792.24 1026.96 2788.48 1027.84 2784.08 1027.84C2778.8 1027.84 2774.04 1026.48 2769.8 1023.76C2765.56 1020.96 2762.2 1016.96 2759.72 1011.76C2757.32 1006.48 2756.12 1000.28 2756.12 993.16ZM2802.8 993.16C2802.8 989.56 2801.88 986.76 2800.04 984.76C2798.2 982.76 2795.84 981.76 2792.96 981.76C2790.08 981.76 2787.72 982.76 2785.88 984.76C2784.04 986.76 2783.12 989.56 2783.12 993.16C2783.12 996.76 2784.04 999.56 2785.88 1001.56C2787.72 1003.56 2790.08 1004.56 2792.96 1004.56C2795.84 1004.56 2798.2 1003.56 2800.04 1001.56C2801.88 999.56 2802.8 996.76 2802.8 993.16ZM2887.23 1004.92H2915.43V1027H2858.07V1006.12L2883.87 981.4H2858.43V959.32H2914.23V980.2L2887.23 1004.92ZM2955.94 1027.84C2949.14 1027.84 2943.02 1026.44 2937.58 1023.64C2932.14 1020.84 2927.86 1016.84 2924.74 1011.64C2921.7 1006.36 2920.18 1000.2 2920.18 993.16C2920.18 986.12 2921.7 980 2924.74 974.8C2927.86 969.52 2932.14 965.48 2937.58 962.68C2943.02 959.88 2949.14 958.48 2955.94 958.48C2962.74 958.48 2968.86 959.88 2974.3 962.68C2979.74 965.48 2983.98 969.52 2987.02 974.8C2990.14 980 2991.7 986.12 2991.7 993.16C2991.7 1000.2 2990.14 1006.36 2987.02 1011.64C2983.98 1016.84 2979.74 1020.84 2974.3 1023.64C2968.86 1026.44 2962.74 1027.84 2955.94 1027.84ZM2955.94 1004.8C2958.42 1004.8 2960.5 1003.84 2962.18 1001.92C2963.86 999.92 2964.7 997 2964.7 993.16C2964.7 989.32 2963.86 986.44 2962.18 984.52C2960.5 982.52 2958.42 981.52 2955.94 981.52C2953.46 981.52 2951.38 982.52 2949.7 984.52C2948.02 986.44 2947.18 989.32 2947.18 993.16C2947.18 997 2947.98 999.92 2949.58 1001.92C2951.26 1003.84 2953.38 1004.8 2955.94 1004.8ZM3047.47 958.84C3055.23 958.84 3061.27 961.44 3065.59 966.64C3069.99 971.84 3072.19 978.88 3072.19 987.76V1027H3045.67V991.12C3045.67 987.92 3044.79 985.4 3043.03 983.56C3041.35 981.64 3039.07 980.68 3036.19 980.68C3033.23 980.68 3030.91 981.64 3029.23 983.56C3027.55 985.4 3026.71 987.92 3026.71 991.12V1027H3000.07V959.32H3026.71V969.64C3028.79 966.44 3031.55 963.84 3034.99 961.84C3038.51 959.84 3042.67 958.84 3047.47 958.84ZM3149.26 992.56C3149.26 994.4 3149.14 996.16 3148.9 997.84H3106.06C3106.46 1003.68 3108.9 1006.6 3113.38 1006.6C3116.26 1006.6 3118.34 1005.28 3119.62 1002.64H3147.82C3146.86 1007.44 3144.82 1011.76 3141.7 1015.6C3138.66 1019.36 3134.78 1022.36 3130.06 1024.6C3125.42 1026.76 3120.3 1027.84 3114.7 1027.84C3107.98 1027.84 3101.98 1026.44 3096.7 1023.64C3091.5 1020.84 3087.42 1016.84 3084.46 1011.64C3081.58 1006.36 3080.14 1000.2 3080.14 993.16C3080.14 986.12 3081.58 980 3084.46 974.8C3087.42 969.52 3091.5 965.48 3096.7 962.68C3101.98 959.88 3107.98 958.48 3114.7 958.48C3121.42 958.48 3127.38 959.88 3132.58 962.68C3137.86 965.4 3141.94 969.32 3144.82 974.44C3147.78 979.56 3149.26 985.6 3149.26 992.56ZM3122.26 986.2C3122.26 983.96 3121.54 982.28 3120.1 981.16C3118.66 979.96 3116.86 979.36 3114.7 979.36C3109.98 979.36 3107.22 981.64 3106.42 986.2H3122.26ZM3184.33 934.24C3193.21 934.24 3200.33 936.48 3205.69 940.96C3211.13 945.36 3213.85 951.84 3213.85 960.4C3213.85 967.44 3211.45 973.12 3206.65 977.44C3201.93 981.76 3195.73 984 3188.05 984.16L3187.33 992.68H3163.81L3163.09 967.24H3173.17C3177.89 967.24 3181.49 966.72 3183.97 965.68C3186.53 964.64 3187.81 962.96 3187.81 960.64C3187.81 959.12 3187.41 957.96 3186.61 957.16C3185.89 956.28 3184.89 955.84 3183.61 955.84C3182.01 955.84 3180.81 956.36 3180.01 957.4C3179.29 958.36 3178.93 959.64 3178.93 961.24H3153.85C3153.61 956.28 3154.57 951.76 3156.73 947.68C3158.97 943.6 3162.41 940.36 3167.05 937.96C3171.69 935.48 3177.45 934.24 3184.33 934.24ZM3175.93 1027.96C3171.29 1027.96 3167.57 1026.72 3164.77 1024.24C3161.97 1021.76 3160.57 1018.64 3160.57 1014.88C3160.57 1011.04 3161.97 1007.88 3164.77 1005.4C3167.57 1002.84 3171.29 1001.56 3175.93 1001.56C3180.49 1001.56 3184.17 1002.84 3186.97 1005.4C3189.77 1007.88 3191.17 1011.04 3191.17 1014.88C3191.17 1018.64 3189.77 1021.76 3186.97 1024.24C3184.17 1026.72 3180.49 1027.96 3175.93 1027.96Z" fill="#E6EFF7"/>
<rect x="2473" y="1245" width="402" height="199" rx="99.5" fill="#CDE9CB"/>
<path d="M2670.37 1362H2659.72L2648.44 1344.91V1362H2637.78V1328.02H2648.44L2659.72 1345.39V1328.02H2670.37V1362ZM2691.75 1362.34C2688.55 1362.34 2685.61 1361.58 2682.92 1360.08C2680.26 1358.58 2678.15 1356.5 2676.58 1353.84C2675.01 1351.18 2674.23 1348.19 2674.23 1344.86C2674.23 1341.54 2675.01 1338.54 2676.58 1335.89C2678.15 1333.23 2680.26 1331.17 2682.92 1329.7C2685.61 1328.19 2688.55 1327.44 2691.75 1327.44C2694.95 1327.44 2697.88 1328.19 2700.53 1329.7C2703.19 1331.17 2705.29 1333.23 2706.82 1335.89C2708.39 1338.54 2709.17 1341.54 2709.17 1344.86C2709.17 1348.19 2708.39 1351.18 2706.82 1353.84C2705.29 1356.5 2703.17 1358.58 2700.49 1360.08C2697.83 1361.58 2694.92 1362.34 2691.75 1362.34ZM2691.75 1352.4C2693.86 1352.4 2695.49 1351.73 2696.65 1350.38C2697.8 1349.01 2698.37 1347.17 2698.37 1344.86C2698.37 1342.53 2697.8 1340.69 2696.65 1339.34C2695.49 1337.97 2693.86 1337.28 2691.75 1337.28C2689.61 1337.28 2687.96 1337.97 2686.81 1339.34C2685.65 1340.69 2685.08 1342.53 2685.08 1344.86C2685.08 1347.17 2685.65 1349.01 2686.81 1350.38C2687.96 1351.73 2689.61 1352.4 2691.75 1352.4Z" fill="#166160"/>
<rect x="1768" y="1237" width="402" height="199" rx="99.5" fill="#CDE9CB"/>
<path d="M1957.17 1320.02L1944.98 1343.68V1354H1934.32V1343.68L1922.13 1320.02H1934.32L1939.75 1332.06L1945.17 1320.02H1957.17ZM1970.25 1328.51V1332.69H1980.81V1340.7H1970.25V1345.5H1982.25V1354H1959.6V1320.02H1982.25V1328.51H1970.25ZM1999.56 1354.34C1995.5 1354.34 1992.14 1353.39 1989.48 1351.5C1986.86 1349.58 1985.44 1346.78 1985.21 1343.1H1996.54C1996.7 1345.06 1997.56 1346.03 1999.13 1346.03C1999.71 1346.03 2000.19 1345.9 2000.57 1345.65C2000.99 1345.36 2001.2 1344.93 2001.2 1344.35C2001.2 1343.55 2000.76 1342.91 1999.9 1342.43C1999.04 1341.92 1997.69 1341.34 1995.87 1340.7C1993.69 1339.94 1991.88 1339.18 1990.44 1338.45C1989.04 1337.71 1987.82 1336.64 1986.8 1335.23C1985.77 1333.82 1985.28 1332.02 1985.31 1329.81C1985.31 1327.6 1985.87 1325.73 1986.99 1324.19C1988.14 1322.62 1989.69 1321.44 1991.64 1320.64C1993.63 1319.84 1995.85 1319.44 1998.32 1319.44C2002.48 1319.44 2005.77 1320.4 2008.2 1322.32C2010.67 1324.24 2011.96 1326.94 2012.09 1330.43H2000.62C2000.59 1329.47 2000.35 1328.78 1999.9 1328.37C1999.45 1327.95 1998.91 1327.74 1998.27 1327.74C1997.82 1327.74 1997.45 1327.9 1997.16 1328.22C1996.88 1328.51 1996.73 1328.93 1996.73 1329.47C1996.73 1330.24 1997.15 1330.88 1997.98 1331.39C1998.84 1331.87 2000.2 1332.46 2002.06 1333.17C2004.2 1333.97 2005.96 1334.74 2007.34 1335.47C2008.75 1336.21 2009.96 1337.23 2010.99 1338.54C2012.01 1339.86 2012.52 1341.5 2012.52 1343.49C2012.52 1345.57 2012.01 1347.44 2010.99 1349.1C2009.96 1350.74 2008.48 1352.02 2006.52 1352.94C2004.57 1353.87 2002.25 1354.34 1999.56 1354.34Z" fill="#166160"/>
<path d="M137.717 1705.02V1739H127.109V1722.06L121.877 1739H112.757L107.525 1722.06V1739H96.8688V1705.02H109.925L117.413 1725.42L124.709 1705.02H137.717ZM159.085 1739.34C155.885 1739.34 152.941 1738.58 150.253 1737.08C147.597 1735.58 145.485 1733.5 143.917 1730.84C142.349 1728.18 141.565 1725.19 141.565 1721.86C141.565 1718.54 142.349 1715.54 143.917 1712.89C145.485 1710.23 147.597 1708.17 150.253 1706.7C152.941 1705.19 155.885 1704.44 159.085 1704.44C162.285 1704.44 165.213 1705.19 167.869 1706.7C170.525 1708.17 172.621 1710.23 174.157 1712.89C175.725 1715.54 176.509 1718.54 176.509 1721.86C176.509 1725.19 175.725 1728.18 174.157 1730.84C172.621 1733.5 170.509 1735.58 167.821 1737.08C165.165 1738.58 162.253 1739.34 159.085 1739.34ZM159.085 1729.4C161.197 1729.4 162.829 1728.73 163.981 1727.38C165.133 1726.01 165.709 1724.17 165.709 1721.86C165.709 1719.53 165.133 1717.69 163.981 1716.34C162.829 1714.97 161.197 1714.28 159.085 1714.28C156.941 1714.28 155.293 1714.97 154.141 1716.34C152.989 1717.69 152.413 1719.53 152.413 1721.86C152.413 1724.17 152.989 1726.01 154.141 1727.38C155.293 1728.73 156.941 1729.4 159.085 1729.4ZM197.441 1739L191.057 1726.81H191.009V1739H180.353V1705.02H196.193C198.945 1705.02 201.297 1705.51 203.249 1706.5C205.201 1707.46 206.657 1708.79 207.617 1710.49C208.609 1712.15 209.105 1714.04 209.105 1716.15C209.105 1718.42 208.465 1720.44 207.185 1722.2C205.937 1723.96 204.129 1725.22 201.761 1725.99L209.153 1739H197.441ZM191.009 1719.7H195.233C196.257 1719.7 197.025 1719.48 197.537 1719.03C198.049 1718.55 198.305 1717.82 198.305 1716.82C198.305 1715.93 198.033 1715.22 197.489 1714.71C196.977 1714.2 196.225 1713.94 195.233 1713.94H191.009V1719.7ZM223.165 1713.51V1717.69H233.725V1725.7H223.165V1730.5H235.165V1739H212.509V1705.02H235.165V1713.51H223.165ZM275.13 1716.68C275.13 1718.82 274.634 1720.78 273.642 1722.54C272.65 1724.26 271.178 1725.64 269.226 1726.66C267.306 1727.69 264.97 1728.2 262.218 1728.2H257.994V1739H247.338V1705.02H262.218C266.378 1705.02 269.562 1706.07 271.77 1708.18C274.01 1710.3 275.13 1713.13 275.13 1716.68ZM261.018 1719.8C263.226 1719.8 264.33 1718.76 264.33 1716.68C264.33 1714.6 263.226 1713.56 261.018 1713.56H257.994V1719.8H261.018ZM295.597 1739L289.213 1726.81H289.165V1739H278.509V1705.02H294.349C297.101 1705.02 299.453 1705.51 301.405 1706.5C303.357 1707.46 304.813 1708.79 305.773 1710.49C306.765 1712.15 307.261 1714.04 307.261 1716.15C307.261 1718.42 306.621 1720.44 305.341 1722.2C304.093 1723.96 302.285 1725.22 299.917 1725.99L307.309 1739H295.597ZM289.165 1719.7H293.389C294.413 1719.7 295.181 1719.48 295.693 1719.03C296.205 1718.55 296.461 1717.82 296.461 1716.82C296.461 1715.93 296.189 1715.22 295.645 1714.71C295.133 1714.2 294.381 1713.94 293.389 1713.94H289.165V1719.7ZM321.322 1705.02V1739H310.666V1705.02H321.322ZM360.358 1705.02L348.934 1739H335.158L323.734 1705.02H335.062L342.07 1728.39L349.03 1705.02H360.358ZM373.4 1705.02V1739H362.744V1705.02H373.4ZM388.869 1730.94H399.141V1739H378.213V1705.02H388.869V1730.94ZM413.15 1713.51V1717.69H423.71V1725.7H413.15V1730.5H425.15V1739H402.494V1705.02H425.15V1713.51H413.15ZM449.998 1716.63C449.582 1715.96 448.99 1715.45 448.222 1715.1C447.454 1714.71 446.526 1714.52 445.438 1714.52C443.39 1714.52 441.806 1715.19 440.686 1716.54C439.566 1717.85 439.006 1719.66 439.006 1721.96C439.006 1724.62 439.63 1726.6 440.878 1727.91C442.126 1729.22 444.046 1729.88 446.638 1729.88C449.102 1729.88 451.086 1728.89 452.59 1726.9H444.094V1719.37H461.422V1730.02C459.95 1732.55 457.918 1734.73 455.326 1736.55C452.734 1738.34 449.454 1739.24 445.486 1739.24C441.966 1739.24 438.894 1738.52 436.27 1737.08C433.678 1735.61 431.678 1733.56 430.27 1730.94C428.894 1728.31 428.206 1725.32 428.206 1721.96C428.206 1718.6 428.894 1715.61 430.27 1712.98C431.678 1710.36 433.678 1708.33 436.27 1706.89C438.862 1705.42 441.902 1704.68 445.39 1704.68C449.838 1704.68 453.454 1705.75 456.238 1707.9C459.054 1710.04 460.718 1712.95 461.23 1716.63H449.998ZM475.915 1713.51V1717.69H486.475V1725.7H475.915V1730.5H487.915V1739H465.259V1705.02H487.915V1713.51H475.915Z" fill="#CDE9CB"/>
<path d="M3852.2 1729.94H3862.48V1738H3841.55V1704.02H3852.2V1729.94ZM3876.49 1712.51V1716.69H3887.05V1724.7H3876.49V1729.5H3888.49V1738H3865.83V1704.02H3888.49V1712.51H3876.49ZM3905.8 1738.34C3901.73 1738.34 3898.37 1737.39 3895.72 1735.5C3893.09 1733.58 3891.67 1730.78 3891.45 1727.1H3902.77C3902.93 1729.06 3903.8 1730.03 3905.37 1730.03C3905.94 1730.03 3906.42 1729.9 3906.81 1729.65C3907.22 1729.36 3907.43 1728.93 3907.43 1728.35C3907.43 1727.55 3907 1726.91 3906.13 1726.43C3905.27 1725.92 3903.93 1725.34 3902.1 1724.7C3899.93 1723.94 3898.12 1723.18 3896.68 1722.45C3895.27 1721.71 3894.05 1720.64 3893.03 1719.23C3892.01 1717.82 3891.51 1716.02 3891.54 1713.81C3891.54 1711.6 3892.1 1709.73 3893.22 1708.19C3894.37 1706.62 3895.93 1705.44 3897.88 1704.64C3899.86 1703.84 3902.09 1703.44 3904.55 1703.44C3908.71 1703.44 3912.01 1704.4 3914.44 1706.32C3916.9 1708.24 3918.2 1710.94 3918.33 1714.43H3906.85C3906.82 1713.47 3906.58 1712.78 3906.13 1712.37C3905.69 1711.95 3905.14 1711.74 3904.5 1711.74C3904.05 1711.74 3903.69 1711.9 3903.4 1712.22C3903.11 1712.51 3902.97 1712.93 3902.97 1713.47C3902.97 1714.24 3903.38 1714.88 3904.21 1715.39C3905.08 1715.87 3906.44 1716.46 3908.29 1717.17C3910.44 1717.97 3912.2 1718.74 3913.57 1719.47C3914.98 1720.21 3916.2 1721.23 3917.22 1722.54C3918.25 1723.86 3918.76 1725.5 3918.76 1727.49C3918.76 1729.57 3918.25 1731.44 3917.22 1733.1C3916.2 1734.74 3914.71 1736.02 3912.76 1736.94C3910.81 1737.87 3908.49 1738.34 3905.8 1738.34ZM3935.8 1738.34C3931.73 1738.34 3928.37 1737.39 3925.72 1735.5C3923.09 1733.58 3921.67 1730.78 3921.45 1727.1H3932.77C3932.93 1729.06 3933.8 1730.03 3935.37 1730.03C3935.94 1730.03 3936.42 1729.9 3936.81 1729.65C3937.22 1729.36 3937.43 1728.93 3937.43 1728.35C3937.43 1727.55 3937 1726.91 3936.13 1726.43C3935.27 1725.92 3933.93 1725.34 3932.1 1724.7C3929.93 1723.94 3928.12 1723.18 3926.68 1722.45C3925.27 1721.71 3924.05 1720.64 3923.03 1719.23C3922.01 1717.82 3921.51 1716.02 3921.54 1713.81C3921.54 1711.6 3922.1 1709.73 3923.22 1708.19C3924.37 1706.62 3925.93 1705.44 3927.88 1704.64C3929.86 1703.84 3932.09 1703.44 3934.55 1703.44C3938.71 1703.44 3942.01 1704.4 3944.44 1706.32C3946.9 1708.24 3948.2 1710.94 3948.33 1714.43H3936.85C3936.82 1713.47 3936.58 1712.78 3936.13 1712.37C3935.69 1711.95 3935.14 1711.74 3934.5 1711.74C3934.05 1711.74 3933.69 1711.9 3933.4 1712.22C3933.11 1712.51 3932.97 1712.93 3932.97 1713.47C3932.97 1714.24 3933.38 1714.88 3934.21 1715.39C3935.08 1715.87 3936.44 1716.46 3938.29 1717.17C3940.44 1717.97 3942.2 1718.74 3943.57 1719.47C3944.98 1720.21 3946.2 1721.23 3947.22 1722.54C3948.25 1723.86 3948.76 1725.5 3948.76 1727.49C3948.76 1729.57 3948.25 1731.44 3947.22 1733.1C3946.2 1734.74 3944.71 1736.02 3942.76 1736.94C3940.81 1737.87 3938.49 1738.34 3935.8 1738.34ZM3988.45 1715.68C3988.45 1717.82 3987.95 1719.78 3986.96 1721.54C3985.97 1723.26 3984.5 1724.64 3982.55 1725.66C3980.63 1726.69 3978.29 1727.2 3975.54 1727.2H3971.31V1738H3960.66V1704.02H3975.54C3979.7 1704.02 3982.88 1705.07 3985.09 1707.18C3987.33 1709.3 3988.45 1712.13 3988.45 1715.68ZM3974.34 1718.8C3976.55 1718.8 3977.65 1717.76 3977.65 1715.68C3977.65 1713.6 3976.55 1712.56 3974.34 1712.56H3971.31V1718.8H3974.34ZM4008.92 1738L4002.53 1725.81H4002.49V1738H3991.83V1704.02H4007.67C4010.42 1704.02 4012.77 1704.51 4014.73 1705.5C4016.68 1706.46 4018.13 1707.79 4019.09 1709.49C4020.09 1711.15 4020.58 1713.04 4020.58 1715.15C4020.58 1717.42 4019.94 1719.44 4018.66 1721.2C4017.41 1722.96 4015.61 1724.22 4013.24 1724.99L4020.63 1738H4008.92ZM4002.49 1718.7H4006.71C4007.73 1718.7 4008.5 1718.48 4009.01 1718.03C4009.53 1717.55 4009.78 1716.82 4009.78 1715.82C4009.78 1714.93 4009.51 1714.22 4008.97 1713.71C4008.45 1713.2 4007.7 1712.94 4006.71 1712.94H4002.49V1718.7ZM4034.64 1704.02V1738H4023.99V1704.02H4034.64ZM4073.68 1704.02L4062.25 1738H4048.48L4037.05 1704.02H4048.38L4055.39 1727.39L4062.35 1704.02H4073.68ZM4086.72 1704.02V1738H4076.06V1704.02H4086.72ZM4102.19 1729.94H4112.46V1738H4091.53V1704.02H4102.19V1729.94ZM4126.47 1712.51V1716.69H4137.03V1724.7H4126.47V1729.5H4138.47V1738H4115.81V1704.02H4138.47V1712.51H4126.47ZM4163.32 1715.63C4162.9 1714.96 4162.31 1714.45 4161.54 1714.1C4160.77 1713.71 4159.85 1713.52 4158.76 1713.52C4156.71 1713.52 4155.13 1714.19 4154.01 1715.54C4152.89 1716.85 4152.33 1718.66 4152.33 1720.96C4152.33 1723.62 4152.95 1725.6 4154.2 1726.91C4155.45 1728.22 4157.37 1728.88 4159.96 1728.88C4162.42 1728.88 4164.41 1727.89 4165.91 1725.9H4157.41V1718.37H4174.74V1729.02C4173.27 1731.55 4171.24 1733.73 4168.65 1735.55C4166.05 1737.34 4162.77 1738.24 4158.81 1738.24C4155.29 1738.24 4152.21 1737.52 4149.59 1736.08C4147 1734.61 4145 1732.56 4143.59 1729.94C4142.21 1727.31 4141.53 1724.32 4141.53 1720.96C4141.53 1717.6 4142.21 1714.61 4143.59 1711.98C4145 1709.36 4147 1707.33 4149.59 1705.89C4152.18 1704.42 4155.22 1703.68 4158.71 1703.68C4163.16 1703.68 4166.77 1704.75 4169.56 1706.9C4172.37 1709.04 4174.04 1711.95 4174.55 1715.63H4163.32ZM4189.24 1712.51V1716.69H4199.8V1724.7H4189.24V1729.5H4201.24V1738H4178.58V1704.02H4201.24V1712.51H4189.24Z" fill="#CDE9CB"/>
<line y1="1808" x2="4340" y2="1808" stroke="#CDE9CB" stroke-width="8"/>
<circle cx="2173.5" cy="2162.5" r="155.5" fill="#E6EFF7"/>
<path d="M2154.34 2146.02L2142.15 2169.68V2180H2131.5V2169.68L2119.3 2146.02H2131.5L2136.92 2158.06L2142.34 2146.02H2154.34ZM2173.33 2180.34C2170.13 2180.34 2167.18 2179.58 2164.5 2178.08C2161.84 2176.58 2159.73 2174.5 2158.16 2171.84C2156.59 2169.18 2155.81 2166.19 2155.81 2162.86C2155.81 2159.54 2156.59 2156.54 2158.16 2153.89C2159.73 2151.23 2161.84 2149.17 2164.5 2147.7C2167.18 2146.19 2170.13 2145.44 2173.33 2145.44C2176.53 2145.44 2179.46 2146.19 2182.11 2147.7C2184.77 2149.17 2186.86 2151.23 2188.4 2153.89C2189.97 2156.54 2190.75 2159.54 2190.75 2162.86C2190.75 2166.19 2189.97 2169.18 2188.4 2171.84C2186.86 2174.5 2184.75 2176.58 2182.06 2178.08C2179.41 2179.58 2176.5 2180.34 2173.33 2180.34ZM2173.33 2170.4C2175.44 2170.4 2177.07 2169.73 2178.22 2168.38C2179.38 2167.01 2179.95 2165.17 2179.95 2162.86C2179.95 2160.53 2179.38 2158.69 2178.22 2157.34C2177.07 2155.97 2175.44 2155.28 2173.33 2155.28C2171.18 2155.28 2169.54 2155.97 2168.38 2157.34C2167.23 2158.69 2166.66 2160.53 2166.66 2162.86C2166.66 2165.17 2167.23 2167.01 2168.38 2168.38C2169.54 2169.73 2171.18 2170.4 2173.33 2170.4ZM2205.01 2146.02V2165.17C2205.01 2166.74 2205.35 2167.98 2206.02 2168.91C2206.72 2169.81 2207.84 2170.26 2209.38 2170.26C2210.92 2170.26 2212.05 2169.81 2212.79 2168.91C2213.52 2167.98 2213.89 2166.74 2213.89 2165.17V2146.02H2224.5V2165.17C2224.5 2168.4 2223.83 2171.17 2222.48 2173.47C2221.14 2175.74 2219.3 2177.46 2216.96 2178.61C2214.63 2179.76 2212.02 2180.34 2209.14 2180.34C2206.26 2180.34 2203.7 2179.76 2201.46 2178.61C2199.25 2177.46 2197.52 2175.74 2196.28 2173.47C2195.03 2171.2 2194.4 2168.43 2194.4 2165.17V2146.02H2205.01Z" fill="#166160"/>
<circle cx="2181.5" cy="2582.5" r="155.5" fill="#CDE9CB"/>
<path d="M2171.89 2574.9V2564.91H2188.17V2600H2176.98V2574.9H2171.89Z" fill="#166160"/>
<ellipse cx="2167.5" cy="3003" rx="155.5" ry="155" fill="#FBC69E"/>
<path d="M2154.75 3011.5C2159.04 3008.3 2162.43 3005.41 2164.93 3002.82C2167.42 3000.19 2168.67 2997.74 2168.67 2995.47C2168.67 2994.7 2168.49 2994.11 2168.14 2993.7C2167.82 2993.28 2167.39 2993.07 2166.85 2993.07C2166.21 2993.07 2165.69 2993.41 2165.31 2994.08C2164.96 2994.72 2164.83 2995.71 2164.93 2997.06H2154.61C2154.7 2994.08 2155.34 2991.63 2156.53 2989.71C2157.74 2987.79 2159.31 2986.38 2161.23 2985.49C2163.15 2984.59 2165.26 2984.14 2167.57 2984.14C2171.66 2984.14 2174.65 2985.14 2176.54 2987.12C2178.46 2989.07 2179.42 2991.58 2179.42 2994.66C2179.42 2997.89 2178.38 3000.93 2176.3 3003.78C2174.25 3006.59 2171.68 3008.98 2168.57 3010.93H2179.57V3019.52H2154.75V3011.5Z" fill="#166160"/>
</g>
<defs>
<clipPath id="clip0">
<rect width="4340" height="3476" fill="white"/>
</clipPath>
</defs>
</svg>
