<svg width="66" height="40" viewBox="0 0 66 40" fill="none" xmlns="http://www.w3.org/2000/svg">
<path d="M62.6161 0.266954C62.1092 0.0938977 61.5656 0 61 0H5C4.31643 0 3.66489 0.137176 3.07142 0.385501L33.6669 21.4045L62.6161 0.266954Z" fill="#182281"/>
<path d="M33.0163 23.3665C33.3773 23.666 33.9175 23.6951 34.3076 23.4103L64.1924 1.5897C64.2848 1.52222 64.3615 1.44242 64.422 1.35447C65.3933 2.26658 66 3.56244 66 5V35C66 37.7614 63.7614 40 61 40H5C2.23858 40 0 37.7614 0 35V5C0 3.68942 0.504238 2.4966 1.32929 1.60498C1.35076 1.62251 1.37317 1.63933 1.39651 1.65536L32.8964 23.2956C32.9352 23.3222 32.9752 23.3458 33.0163 23.3665Z" fill="#182281"/>
</svg>
