<svg width="66" height="66" viewBox="0 0 66 66" fill="none" xmlns="http://www.w3.org/2000/svg">
<path fill-rule="evenodd" clip-rule="evenodd" d="M0 33C0 48.5525 10.7587 61.5921 25.2396 65.0824C24.4329 63.7149 23.9701 62.1204 23.9701 60.4179V57.154C20.0485 57.2165 13.8509 56.4504 10.5075 51.5523C9.48979 50.0614 8.04477 47.6119 5.58206 43.1791C4.12458 40.5556 6.0329 42.3991 8.70901 44.9843C11.1262 47.3194 14.1699 50.2597 15.9254 51.0598C18.1659 52.0809 21.2789 52.4135 23.9701 52.4769V50.837C23.9701 49.1077 24.4476 47.49 25.2778 46.1083C18.0509 44.693 12.806 40.6921 12.806 30.7873C12.806 27.578 14.5274 24.5968 17.3566 22.225L16.4255 15.3546C16.285 14.318 17.3069 13.5054 18.314 13.853L27.564 17.0456C27.7901 17.1237 27.9784 17.2461 28.1267 17.3972C29.8696 17.0662 31.6933 16.8889 33.5595 16.8889C35.4036 16.8889 37.1844 17.062 38.8724 17.3854L48.0948 14.2023C49.1018 13.8548 50.1238 14.6674 49.9833 15.704L49.1183 22.086C51.8799 24.4798 53.5224 27.515 53.5224 30.7873C53.5224 40.6152 48.421 44.7466 41.0832 46.1631C41.8933 47.5327 42.3582 49.1305 42.3582 50.837V60.4178C42.3582 62.0812 41.9165 63.6413 41.144 64.9874C55.4309 61.3611 66 48.4148 66 33C66 14.7746 51.2254 0 33 0C14.7746 0 0 14.7746 0 33Z" fill="#182281"/>
</svg>
