<svg width="36" height="36" viewBox="0 0 36 36" fill="none" xmlns="http://www.w3.org/2000/svg">
<g clip-path="url(#clip0)">
<path d="M12.5642 31.1702C11.7002 31.1702 10.8962 30.9422 10.1522 30.4862C9.4322 30.0542 8.8442 29.4662 8.3882 28.7222C7.9562 27.9782 7.7402 27.1622 7.7402 26.2742C7.7402 24.9782 8.2202 23.8742 9.1802 22.9622C10.1642 22.0502 11.3882 21.5222 12.8522 21.3782L12.4922 20.2262C12.0122 20.4902 11.4602 20.7182 10.8362 20.9102C10.2362 21.1022 9.6602 21.1982 9.1082 21.1982C8.2442 21.1982 7.4642 20.9822 6.7682 20.5502C6.0962 20.0942 5.5562 19.5062 5.1482 18.7862C4.7402 18.0422 4.5362 17.2502 4.5362 16.4102C4.5362 15.4982 4.7522 14.6822 5.1842 13.9622C5.6402 13.2182 6.2282 12.6302 6.9482 12.1982C7.6682 11.7662 8.4602 11.5502 9.3242 11.5502C10.3082 11.5502 11.2562 11.8982 12.1682 12.5942C13.0802 13.2902 13.7402 14.1302 14.1482 15.1142L15.0842 14.3942C14.4362 13.7942 13.9082 13.1342 13.5002 12.4142C13.1162 11.6702 12.9242 10.9622 12.9242 10.2902C12.9242 9.37819 13.1402 8.56219 13.5722 7.84219C14.0042 7.09819 14.5802 6.51019 15.3002 6.07819C16.0442 5.62219 16.8602 5.39419 17.7482 5.39419C18.6362 5.39419 19.4522 5.62219 20.1962 6.07819C20.9402 6.51019 21.5282 7.09819 21.9602 7.84219C22.4162 8.58619 22.6442 9.4022 22.6442 10.2902C22.6442 10.9622 22.4402 11.6822 22.0322 12.4502C21.6242 13.1942 21.1082 13.8422 20.4842 14.3942L21.4202 15.1142C21.8282 14.1062 22.4762 13.2662 23.3642 12.5942C24.2762 11.8982 25.2362 11.5502 26.2442 11.5502C27.1082 11.5502 27.9002 11.7662 28.6202 12.1982C29.3642 12.6302 29.9522 13.2182 30.3842 13.9622C30.8162 14.6822 31.0322 15.4982 31.0322 16.4102C31.0322 17.2502 30.8162 18.0422 30.3842 18.7862C29.9762 19.5062 29.4242 20.0942 28.7282 20.5502C28.0562 20.9822 27.3122 21.1982 26.4962 21.1982C25.4162 21.1982 24.2762 20.8742 23.0762 20.2262L22.7162 21.3782C23.6762 21.4742 24.5402 21.7502 25.3082 22.2062C26.0762 22.6382 26.6882 23.2142 27.1442 23.9342C27.6002 24.6302 27.8282 25.4102 27.8282 26.2742C27.8282 27.1382 27.6002 27.9422 27.1442 28.6862C26.7122 29.4302 26.1362 30.0302 25.4162 30.4862C24.6962 30.9422 23.8922 31.1702 23.0042 31.1702C21.6362 31.1702 20.4962 30.7022 19.5842 29.7662C18.6722 28.8062 18.2162 27.5822 18.2162 26.0942C18.2162 25.5422 18.2762 25.0262 18.3962 24.5462H17.1722C17.2202 24.7862 17.2562 25.0382 17.2802 25.3022C17.3282 25.5662 17.3522 25.8302 17.3522 26.0942C17.3522 27.5582 16.8962 28.7702 15.9842 29.7302C15.0722 30.6902 13.9322 31.1702 12.5642 31.1702ZM17.7482 23.6102C18.5642 23.6102 19.3082 23.4062 19.9802 22.9982C20.6522 22.5902 21.1922 22.0502 21.6002 21.3782C22.0082 20.7062 22.2122 19.9622 22.2122 19.1462C22.2122 18.3302 22.0082 17.5862 21.6002 16.9142C21.1922 16.2422 20.6522 15.7022 19.9802 15.2942C19.3082 14.8862 18.5642 14.6822 17.7482 14.6822C16.9322 14.6822 16.1882 14.8862 15.5162 15.2942C14.8682 15.7022 14.3402 16.2422 13.9322 16.9142C13.5482 17.5862 13.3562 18.3302 13.3562 19.1462C13.3562 19.9622 13.5482 20.7182 13.9322 21.4142C14.3402 22.0862 14.8802 22.6262 15.5522 23.0342C16.2242 23.4182 16.9562 23.6102 17.7482 23.6102Z" fill="black"/>
</g>
<defs>
<clipPath id="clip0">
<rect width="36" height="36" fill="white"/>
</clipPath>
</defs>
</svg>
