<svg width="66" height="66" viewBox="0 0 66 66" fill="none" xmlns="http://www.w3.org/2000/svg">
<path d="M32.1316 43.4211C38.3666 43.4211 43.4211 38.3666 43.4211 32.1316C43.4211 25.8966 38.3666 20.8421 32.1316 20.8421C25.8966 20.8421 20.8421 25.8966 20.8421 32.1316C20.8421 38.3666 25.8966 43.4211 32.1316 43.4211Z" fill="#182281"/>
<path fill-rule="evenodd" clip-rule="evenodd" d="M17.9474 0H48.0526C57.9647 0 66 8.03531 66 17.9474V48.0526C66 57.9647 57.9647 66 48.0526 66H17.9474C8.03531 66 0 57.9647 0 48.0526V17.9474C0 8.03531 8.03531 0 17.9474 0ZM32.1316 46.8947C40.285 46.8947 46.8947 40.285 46.8947 32.1316C46.8947 23.9781 40.285 17.3684 32.1316 17.3684C23.9781 17.3684 17.3684 23.9781 17.3684 32.1316C17.3684 40.285 23.9781 46.8947 32.1316 46.8947ZM51.2368 19.1053C54.5942 19.1053 57.3158 16.3836 57.3158 13.0263C57.3158 9.66901 54.5942 6.94737 51.2368 6.94737C47.8795 6.94737 45.1579 9.66901 45.1579 13.0263C45.1579 16.3836 47.8795 19.1053 51.2368 19.1053Z" fill="#182281"/>
</svg>
